<?xml version="1.0" encoding="UTF-8" standalone="no"?>
<svg
   xmlns:dc="http://purl.org/dc/elements/1.1/"
   xmlns:cc="http://creativecommons.org/ns#"
   xmlns:rdf="http://www.w3.org/1999/02/22-rdf-syntax-ns#"
   xmlns:svg="http://www.w3.org/2000/svg"
   xmlns="http://www.w3.org/2000/svg"
   version="1.1"
   id="svg4166"
   viewBox="0 0 744.09448819 1052.3622047"
   height="297mm"
   width="210mm">
  <defs
     id="defs4168" />
  <metadata
     id="metadata4171">
    <rdf:RDF>
      <cc:Work
         rdf:about="">
        <dc:format>image/svg+xml</dc:format>
        <dc:type
           rdf:resource="http://purl.org/dc/dcmitype/StillImage" />
        <dc:title></dc:title>
      </cc:Work>
    </rdf:RDF>
  </metadata>
  <g
     id="layer1">
    <path
       id="path4766"
       d="m 27.2373,24.95047 c 15.880183,-7.08019 19.182943,-7.57456 29.755437,-8.94251 0,0 3.094081,-5.20302 8.681465,-5.04192 5.647106,-0.0973 8.68788,4.7816 8.68788,4.7816 11.197529,0.96275 17.424468,3.88428 29.664698,8.59207 1.13966,9.6043 3.68412,13.90039 14.39602,17.87532 0.5429,20.73204 -1.35726,32.91338 -8.14352,50.59161 -8.87205,17.97659 -22.669824,33.75264 -42.957064,42.85527 C 46.043725,123.26276 36.05144,113.78402 24.772331,94.74072 15.887725,78.20603 13.71361,62.4253 12.55706,44.25091 24.289816,39.29927 25.375714,36.29458 27.2373,24.95047 Z"
       style="display:inline;fill:none;fill-rule:evenodd;stroke:#000000;stroke-width:0.33894283px;stroke-linecap:butt;stroke-linejoin:miter;stroke-opacity:1" />
    <path
       id="path4768"
       d="m 20.089805,48.11908 c 9.368296,-4.28564 12.793842,-8.13412 14.454749,-19.95162 21.893175,-7.86506 43.276989,-6.45636 63.112272,0 0.373037,11.21025 6.431914,15.5482 14.352954,19.54444 0,10.92589 0.20358,20.73204 -3.86817,32.87946 -6.22815,23.39625 -23.729554,38.75705 -39.801453,46.92703 C 58.683577,124.04466 39.042265,108.88496 30.065618,91.07614 23.670147,76.48692 21.003295,71.31735 20.089805,48.11908 Z"
       style="display:inline;fill:none;fill-rule:evenodd;stroke:#000000;stroke-width:0.33894283px;stroke-linecap:butt;stroke-linejoin:miter;stroke-opacity:1" />
    <path
       id="path4770"
       d="m 42.280897,57.8913 c 5.093114,0.61275 10.017255,3.35042 12.215276,10.1794 1.276777,3.36017 -0.708096,11.13204 -7.329168,10.58657 -5.23708,-0.82163 -9.370457,-2.546 -12.418864,-6.92199 -1.730497,-2.74843 -2.341262,-5.90405 -2.035881,-7.32917 1.145393,-6.79498 6.551585,-7.1478 9.568637,-6.51481 z"
       style="display:inline;fill:none;fill-rule:evenodd;stroke:#000000;stroke-width:0.33894283px;stroke-linecap:butt;stroke-linejoin:miter;stroke-opacity:1" />
    <path
       id="path4772"
       d="m 60.09484,40.28094 c 4.343214,-0.84828 8.686423,-0.37324 10.484783,3.15562 5.203498,9.52181 4.573345,20.37467 -5.496873,21.78391 C 50.993083,66.6714 48.126963,41.16161 60.09484,40.28094 Z"
       style="display:inline;fill:none;fill-rule:evenodd;stroke:#000000;stroke-width:0.33894283px;stroke-linecap:butt;stroke-linejoin:miter;stroke-opacity:1" />
    <path
       id="path4774"
       d="m 78.519555,62.57382 c -0.767712,-7.46426 4.038856,-13.30164 10.382988,-14.65833 3.929107,-0.81537 8.361486,4.33887 7.939929,11.8081 -1.028963,6.63974 -5.800654,10.08923 -9.365044,10.58658 -4.729256,0.75145 -8.251211,-3.06911 -8.957873,-7.73635 z"
       style="display:inline;fill:none;fill-rule:evenodd;stroke:#000000;stroke-width:0.33894283px;stroke-linecap:butt;stroke-linejoin:miter;stroke-opacity:1" />
    <path
       id="path4776"
       d="m 60.196638,102.47707 c 2.748437,0.67863 3.766377,0.64469 7.329168,-1.01794 6.9974,-3.76077 7.688152,-3.96395 16.694212,-4.47894 4.684284,-1.86684 7.585862,-3.87068 6.514816,-11.40092 -2.212246,-8.21833 -4.352087,-11.06544 -11.808103,-15.67628 -4.275347,-2.23947 -8.89001,-2.51092 -13.640392,0 -9.132539,5.61796 -11.800372,10.96084 -12.622457,19.23907 -1.104239,9.03478 5.151059,13.39983 7.532756,13.33501 z"
       style="display:inline;fill:none;fill-rule:evenodd;stroke:#000000;stroke-width:0.33894283px;stroke-linecap:butt;stroke-linejoin:miter;stroke-opacity:1" />
    <ellipse
       ry="3.8199437"
       rx="6.2614226"
       cy="17.916107"
       cx="65.975372"
       id="path4788"
       style="display:inline;fill:#000080;fill-opacity:0;stroke:#020404;stroke-width:0.33894283;stroke-miterlimit:4;stroke-dasharray:none;stroke-opacity:0.98536586" />
  </g>
</svg>
